<?xml version="1.0" encoding="UTF-8" standalone="no"?>
<!DOCTYPE svg PUBLIC "-//W3C//DTD SVG 1.1//EN"
 "http://www.w3.org/Graphics/SVG/1.1/DTD/svg11.dtd">
<!-- Generated by graphviz version 2.43.0 (0)
 -->
<!-- Title: %3 Pages: 1 -->
<svg width="1180pt" height="585pt"
 viewBox="0.00 0.00 1180.00 585.00" xmlns="http://www.w3.org/2000/svg" xmlns:xlink="http://www.w3.org/1999/xlink">
<g id="graph0" class="graph" transform="scale(1 1) rotate(0) translate(4 581)">
<title>%3</title>
<polygon fill="white" stroke="transparent" points="-4,4 -4,-581 1176,-581 1176,4 -4,4"/>
<!-- A -->
<g id="node1" class="node">
<title>A</title>
<polygon fill="none" stroke="black" points="779,-577 568,-577 568,-524 779,-524 779,-577"/>
<text text-anchor="middle" x="673.5" y="-561.8" font-family="Times,serif" font-size="14.00">Total number of Cochrane reviews </text>
<text text-anchor="middle" x="673.5" y="-546.8" font-family="Times,serif" font-size="14.00">on interventions as of 2025&#45;04&#45;01 </text>
<text text-anchor="middle" x="673.5" y="-531.8" font-family="Times,serif" font-size="14.00">(n=9011)</text>
</g>
<!-- B -->
<g id="node2" class="node">
<title>B</title>
<polygon fill="none" stroke="black" points="785,-473 562,-473 562,-420 785,-420 785,-473"/>
<text text-anchor="middle" x="673.5" y="-457.8" font-family="Times,serif" font-size="14.00">Reviews with </text>
<text text-anchor="middle" x="673.5" y="-442.8" font-family="Times,serif" font-size="14.00">Summary of Findings (SoF) Table(s) </text>
<text text-anchor="middle" x="673.5" y="-427.8" font-family="Times,serif" font-size="14.00">(n=5159)</text>
</g>
<!-- A&#45;&gt;B -->
<g id="edge1" class="edge">
<title>A&#45;&gt;B</title>
<path fill="none" stroke="black" d="M673.5,-523.76C673.5,-511.56 673.5,-496.78 673.5,-483.49"/>
<polygon fill="black" stroke="black" points="677,-483.23 673.5,-473.23 670,-483.23 677,-483.23"/>
<text text-anchor="middle" x="722.5" y="-494.8" font-family="Times,serif" font-size="14.00"> removed n=3964</text>
</g>
<!-- C -->
<g id="node3" class="node">
<title>C</title>
<polygon fill="none" stroke="black" points="779,-369 568,-369 568,-316 779,-316 779,-369"/>
<text text-anchor="middle" x="673.5" y="-353.8" font-family="Times,serif" font-size="14.00">Reviews with </text>
<text text-anchor="middle" x="673.5" y="-338.8" font-family="Times,serif" font-size="14.00">at least one outcome with GRADE </text>
<text text-anchor="middle" x="673.5" y="-323.8" font-family="Times,serif" font-size="14.00">(n=5047)</text>
</g>
<!-- B&#45;&gt;C -->
<g id="edge2" class="edge">
<title>B&#45;&gt;C</title>
<path fill="none" stroke="black" d="M673.5,-419.76C673.5,-407.56 673.5,-392.78 673.5,-379.49"/>
<polygon fill="black" stroke="black" points="677,-379.23 673.5,-369.23 670,-379.23 677,-379.23"/>
<text text-anchor="middle" x="719" y="-390.8" font-family="Times,serif" font-size="14.00"> removed n=112</text>
</g>
<!-- D1 -->
<g id="node4" class="node">
<title>D1</title>
<polygon fill="none" stroke="black" points="621,-264 498,-264 498,-226 621,-226 621,-264"/>
<text text-anchor="middle" x="559.5" y="-248.8" font-family="Times,serif" font-size="14.00">Unflagged reviews </text>
<text text-anchor="middle" x="559.5" y="-233.8" font-family="Times,serif" font-size="14.00">(n=4968)</text>
</g>
<!-- C&#45;&gt;D1 -->
<g id="edge3" class="edge">
<title>C&#45;&gt;D1</title>
<path fill="none" stroke="black" d="M642.95,-315.91C626.17,-301.85 605.47,-284.51 588.88,-270.61"/>
<polygon fill="black" stroke="black" points="591.01,-267.83 581.1,-264.1 586.52,-273.2 591.01,-267.83"/>
</g>
<!-- D4 -->
<g id="node5" class="node">
<title>D4</title>
<polygon fill="none" stroke="black" points="952.5,-279 652.5,-279 652.5,-211 952.5,-211 952.5,-279"/>
<text text-anchor="middle" x="802.5" y="-263.8" font-family="Times,serif" font-size="14.00">Flagged reviews </text>
<text text-anchor="middle" x="802.5" y="-248.8" font-family="Times,serif" font-size="14.00">n=54 without Nr. of participants or studies </text>
<text text-anchor="middle" x="802.5" y="-233.8" font-family="Times,serif" font-size="14.00">n=25 with multiple GRADE levels in one outcome </text>
<text text-anchor="middle" x="802.5" y="-218.8" font-family="Times,serif" font-size="14.00">(n=79 in total)</text>
</g>
<!-- C&#45;&gt;D4 -->
<g id="edge5" class="edge">
<title>C&#45;&gt;D4</title>
<path fill="none" stroke="black" d="M708.07,-315.91C720.8,-306.49 735.52,-295.58 749.5,-285.24"/>
<polygon fill="black" stroke="black" points="751.67,-287.98 757.63,-279.22 747.51,-282.36 751.67,-287.98"/>
</g>
<!-- E1 -->
<g id="node6" class="node">
<title>E1</title>
<polygon fill="none" stroke="black" points="323,-144 0,-144 0,-76 323,-76 323,-144"/>
<text text-anchor="middle" x="161.5" y="-128.8" font-family="Times,serif" font-size="14.00">Random set manually reviewed </text>
<text text-anchor="middle" x="161.5" y="-113.8" font-family="Times,serif" font-size="14.00">for automatic extraction tuning </text>
<text text-anchor="middle" x="161.5" y="-98.8" font-family="Times,serif" font-size="14.00">(n=150) </text>
<text text-anchor="middle" x="161.5" y="-83.8" font-family="Times,serif" font-size="14.00">with 99.4% accuracy of automatic vs manual extraction</text>
</g>
<!-- D1&#45;&gt;E1 -->
<g id="edge4" class="edge">
<title>D1&#45;&gt;E1</title>
<path fill="none" stroke="black" d="M505.41,-225.92C445.18,-205.8 346.27,-172.74 269.95,-147.24"/>
<polygon fill="black" stroke="black" points="270.88,-143.86 260.28,-144.01 268.66,-150.5 270.88,-143.86"/>
</g>
<!-- E2 -->
<g id="node7" class="node">
<title>E2</title>
<polygon fill="none" stroke="black" points="664,-144 341,-144 341,-76 664,-76 664,-144"/>
<text text-anchor="middle" x="502.5" y="-128.8" font-family="Times,serif" font-size="14.00">Random set manually reviewed </text>
<text text-anchor="middle" x="502.5" y="-113.8" font-family="Times,serif" font-size="14.00">after automatic extraction tuning (&#39;test set&#39;) </text>
<text text-anchor="middle" x="502.5" y="-98.8" font-family="Times,serif" font-size="14.00">(n=100) </text>
<text text-anchor="middle" x="502.5" y="-83.8" font-family="Times,serif" font-size="14.00">with 98.8% accuracy of automatic vs manual extraction</text>
</g>
<!-- D1&#45;&gt;E2 -->
<g id="edge6" class="edge">
<title>D1&#45;&gt;E2</title>
<path fill="none" stroke="black" d="M551.69,-225.79C543.75,-207.26 531.16,-177.88 520.71,-153.48"/>
<polygon fill="black" stroke="black" points="523.83,-151.88 516.67,-144.07 517.39,-154.64 523.83,-151.88"/>
</g>
<!-- E3 -->
<g id="node8" class="node">
<title>E3</title>
<polygon fill="none" stroke="black" points="831,-145 682,-145 682,-75 831,-75 831,-145"/>
<text text-anchor="middle" x="756.5" y="-113.8" font-family="Times,serif" font-size="14.00">Not manually reviewed </text>
<text text-anchor="middle" x="756.5" y="-98.8" font-family="Times,serif" font-size="14.00">(n=4718)</text>
</g>
<!-- D1&#45;&gt;E3 -->
<g id="edge7" class="edge">
<title>D1&#45;&gt;E3</title>
<path fill="none" stroke="black" d="M586.48,-225.79C614.87,-206.62 660.45,-175.84 697.28,-150.98"/>
<polygon fill="black" stroke="black" points="699.62,-153.62 705.95,-145.12 695.71,-147.82 699.62,-153.62"/>
</g>
<!-- E4 -->
<g id="node9" class="node">
<title>E4</title>
<polygon fill="none" stroke="black" points="1172,-144 849,-144 849,-76 1172,-76 1172,-144"/>
<text text-anchor="middle" x="1010.5" y="-128.8" font-family="Times,serif" font-size="14.00">Flagged reviews </text>
<text text-anchor="middle" x="1010.5" y="-113.8" font-family="Times,serif" font-size="14.00">kept after manual review </text>
<text text-anchor="middle" x="1010.5" y="-98.8" font-family="Times,serif" font-size="14.00">(n=47) </text>
<text text-anchor="middle" x="1010.5" y="-83.8" font-family="Times,serif" font-size="14.00">with 82.4% accuracy of automatic vs manual extraction</text>
</g>
<!-- D4&#45;&gt;E4 -->
<g id="edge8" class="edge">
<title>D4&#45;&gt;E4</title>
<path fill="none" stroke="black" d="M854.18,-210.95C883.2,-192.4 919.57,-169.14 949.92,-149.73"/>
<polygon fill="black" stroke="black" points="952.18,-152.44 958.72,-144.11 948.41,-146.55 952.18,-152.44"/>
<text text-anchor="middle" x="1025.5" y="-181.8" font-family="Times,serif" font-size="14.00"> removed n=32 after manual review </text>
<text text-anchor="middle" x="1025.5" y="-166.8" font-family="Times,serif" font-size="14.00">without Nr. of participants or studies</text>
</g>
<!-- F1 -->
<g id="node10" class="node">
<title>F1</title>
<polygon fill="none" stroke="black" points="723,-38 534,-38 534,0 723,0 723,-38"/>
<text text-anchor="middle" x="628.5" y="-22.8" font-family="Times,serif" font-size="14.00">Total included reviews </text>
<text text-anchor="middle" x="628.5" y="-7.8" font-family="Times,serif" font-size="14.00">(n=5015 with 50839 outcomes)</text>
</g>
<!-- E1&#45;&gt;F1 -->
<g id="edge9" class="edge">
<title>E1&#45;&gt;F1</title>
<path fill="none" stroke="black" d="M323.01,-76.64C325.86,-76.09 328.69,-75.54 331.5,-75 395.26,-62.72 466.82,-49.45 523.72,-39.03"/>
<polygon fill="black" stroke="black" points="524.6,-42.42 533.8,-37.18 523.33,-35.54 524.6,-42.42"/>
</g>
<!-- E2&#45;&gt;F1 -->
<g id="edge10" class="edge">
<title>E2&#45;&gt;F1</title>
<path fill="none" stroke="black" d="M549.42,-75.86C564.37,-65.3 580.61,-53.83 594.47,-44.04"/>
<polygon fill="black" stroke="black" points="596.6,-46.82 602.75,-38.19 592.56,-41.1 596.6,-46.82"/>
</g>
<!-- E3&#45;&gt;F1 -->
<g id="edge11" class="edge">
<title>E3&#45;&gt;F1</title>
<path fill="none" stroke="black" d="M707.38,-74.84C692.57,-64.55 676.64,-53.47 663,-43.99"/>
<polygon fill="black" stroke="black" points="664.61,-40.85 654.4,-38.01 660.62,-46.59 664.61,-40.85"/>
</g>
<!-- E4&#45;&gt;F1 -->
<g id="edge12" class="edge">
<title>E4&#45;&gt;F1</title>
<path fill="none" stroke="black" d="M868.8,-75.99C817.47,-64.03 761.03,-50.88 715.76,-40.33"/>
<polygon fill="black" stroke="black" points="716.52,-36.91 705.98,-38.05 714.93,-43.73 716.52,-36.91"/>
</g>
</g>
</svg>
